<svg xmlns="http://www.w3.org/2000/svg" width="40" height="27" fill="none" viewBox="0 0 40 27">
    <path fill="#fff" d="M15.812 13.22c0-1.658.375-3.295 1.1-4.787.726-1.492 1.781-2.8 3.087-3.823-1.617-1.27-3.56-2.06-5.604-2.28-2.044-.218-4.11.142-5.959 1.04-1.85.898-3.409 2.299-4.5 4.04-1.09 1.743-1.67 3.757-1.67 5.812s.58 4.069 1.67 5.81c1.091 1.743 2.65 3.143 4.5 4.042 1.85.898 3.915 1.258 5.96 1.039 2.044-.22 3.986-1.009 5.602-2.279-1.305-1.024-2.36-2.332-3.086-3.825-.725-1.492-1.101-3.13-1.1-4.789z" opacity=".5"/>
    <path fill="#fff" d="M37.732 13.22c0 2.056-.579 4.07-1.67 5.812s-2.65 3.142-4.5 4.04c-1.85.899-3.916 1.259-5.96 1.039-2.045-.22-3.987-1.01-5.604-2.28 1.305-1.025 2.36-2.333 3.086-3.825.725-1.491 1.102-3.129 1.102-4.787 0-1.659-.377-3.296-1.102-4.788-.726-1.492-1.78-2.8-3.086-3.824 1.617-1.27 3.559-2.06 5.604-2.28 2.044-.22 4.11.14 5.96 1.038 1.85.898 3.409 2.299 4.5 4.04 1.091 1.743 1.67 3.757 1.67 5.812v.003z" opacity="0.8"/>
    <path fill="#fff" fill-rule="evenodd" d="M19.999 4.607h-.004l.003.003c-1.305 1.024-2.36 2.331-3.085 3.823-.726 1.492-1.102 3.129-1.1 4.787-.002 1.66.374 3.297 1.099 4.79.724 1.49 1.779 2.797 3.083 3.821h.004c1.304-1.025 2.36-2.333 3.085-3.825.725-1.491 1.102-3.129 1.102-4.787 0-1.659-.377-3.296-1.102-4.788-.726-1.492-1.78-2.8-3.085-3.824z" clip-rule="evenodd" opacity=".7"/>
</svg>
