<svg xmlns="http://www.w3.org/2000/svg" width="46" height="29" fill="none" viewBox="0 0 46 29">
    <g fill="#fff" clip-path="url(#clip0)">
        <path fill-rule="evenodd" opacity="0.5" d="M15.386 8.41l-.525 1.463-2.355 6.562-.308-1.631-1.03-5.409c-.178-.745-.695-.967-1.334-.993H5.091l-.039.244c1.154.305 2.186.745 3.09 1.291l2.616 10.223 3.112-.002.99-2.512 3.642-9.236h-3.116zm4.307-.01l-.048.305-1.792 11.465h2.941l.7-4.479 1.14-7.29h-2.941zm18.129 7.597c-.116-.588-.681-3.398-.681-3.398l-.198-1.015c-.149.441-.408 1.154-.392 1.123 0 0-.927 2.613-1.17 3.29h2.44zm3.567 4.177h-2.73s-.27-1.352-.358-1.763l-3.767-.007-.078.22c-.18.512-.54 1.55-.54 1.55h-3.09l3.63-8.963.738-1.823c.31-.767.837-.976 1.542-.976h2.273l2.38 11.762zm-10.353-3.85c-.018 1.89-1.227 3.257-3.203 3.782-.578.153-1.218.239-1.919.239-.096-.002-.192-.007-.288-.01-1.213-.05-2.353-.314-2.989-.618l.412-2.634.378.187c.797.362 1.366.544 2.2.598.177.012.363.02.571.02.665 0 1.362-.229 1.636-.709.073-.13.123-.274.124-.441.002-.16-.04-.305-.124-.447-.188-.316-.611-.616-1.403-1.014-.256-.13-.532-.28-.805-.454-.911-.583-1.785-1.441-1.77-2.743.01-1.295.671-2.369 1.77-3.056.612-.383 1.36-.646 2.207-.761.319-.043.65-.067.995-.067 1.139 0 2.053.257 2.635.493l-.398 2.552-.264-.135c-.543-.24-1.24-.468-2.201-.452-.297 0-.551.036-.767.096-.622.172-.918.554-.919.916-.005.405.335.708.92 1.055.213.127.457.26.732.405 1.697.84 2.481 1.857 2.47 3.199z" clip-rule="evenodd"/>
        <path opacity="0.5" d="M0 0H46.022V5.043H0zM0 23.956H46.022V28.999H0z"/>
    </g>
    <defs>
        <clipPath id="clip0">
            <path fill="#fff" d="M0 0H46V29H0z"/>
        </clipPath>
    </defs>
</svg>
